<svg id="visual" viewBox="0 0 900 600" width="900" height="600" xmlns="http://www.w3.org/2000/svg" xmlns:xlink="http://www.w3.org/1999/xlink" version="1.1"><rect x="0" y="0" width="900" height="600" fill="#001220"></rect><path d="M0 407L21.5 408.3C43 409.7 86 412.3 128.8 403.3C171.7 394.3 214.3 373.7 257.2 379C300 384.3 343 415.7 385.8 430.2C428.7 444.7 471.3 442.3 514.2 433.7C557 425 600 410 642.8 404.5C685.7 399 728.3 403 771.2 410.5C814 418 857 429 878.5 434.5L900 440L900 601L878.5 601C857 601 814 601 771.2 601C728.3 601 685.7 601 642.8 601C600 601 557 601 514.2 601C471.3 601 428.7 601 385.8 601C343 601 300 601 257.2 601C214.3 601 171.7 601 128.8 601C86 601 43 601 21.5 601L0 601Z" fill="#ffffff"></path><path d="M0 415L21.5 420.2C43 425.3 86 435.7 128.8 433.5C171.7 431.3 214.3 416.7 257.2 422.3C300 428 343 454 385.8 455.7C428.7 457.3 471.3 434.7 514.2 427.7C557 420.7 600 429.3 642.8 436.8C685.7 444.3 728.3 450.7 771.2 454.8C814 459 857 461 878.5 462L900 463L900 601L878.5 601C857 601 814 601 771.2 601C728.3 601 685.7 601 642.8 601C600 601 557 601 514.2 601C471.3 601 428.7 601 385.8 601C343 601 300 601 257.2 601C214.3 601 171.7 601 128.8 601C86 601 43 601 21.5 601L0 601Z" fill="#c8c8c8"></path><path d="M0 476L21.5 479.2C43 482.3 86 488.7 128.8 487.3C171.7 486 214.3 477 257.2 475.3C300 473.7 343 479.3 385.8 477.5C428.7 475.7 471.3 466.3 514.2 460.7C557 455 600 453 642.8 450.8C685.7 448.7 728.3 446.3 771.2 451C814 455.7 857 467.3 878.5 473.2L900 479L900 601L878.5 601C857 601 814 601 771.2 601C728.3 601 685.7 601 642.8 601C600 601 557 601 514.2 601C471.3 601 428.7 601 385.8 601C343 601 300 601 257.2 601C214.3 601 171.7 601 128.8 601C86 601 43 601 21.5 601L0 601Z" fill="#939393"></path><path d="M0 512L21.5 507.3C43 502.7 86 493.3 128.8 495.8C171.7 498.3 214.3 512.7 257.2 517.2C300 521.7 343 516.3 385.8 514C428.7 511.7 471.3 512.3 514.2 514.8C557 517.3 600 521.7 642.8 520.5C685.7 519.3 728.3 512.7 771.2 508.8C814 505 857 504 878.5 503.5L900 503L900 601L878.5 601C857 601 814 601 771.2 601C728.3 601 685.7 601 642.8 601C600 601 557 601 514.2 601C471.3 601 428.7 601 385.8 601C343 601 300 601 257.2 601C214.3 601 171.7 601 128.8 601C86 601 43 601 21.5 601L0 601Z" fill="#626262"></path><path d="M0 554L21.5 552.2C43 550.3 86 546.7 128.8 543.5C171.7 540.3 214.3 537.7 257.2 536.5C300 535.3 343 535.7 385.8 541.7C428.7 547.7 471.3 559.3 514.2 558.7C557 558 600 545 642.8 543C685.7 541 728.3 550 771.2 553C814 556 857 553 878.5 551.5L900 550L900 601L878.5 601C857 601 814 601 771.2 601C728.3 601 685.7 601 642.8 601C600 601 557 601 514.2 601C471.3 601 428.7 601 385.8 601C343 601 300 601 257.2 601C214.3 601 171.7 601 128.8 601C86 601 43 601 21.5 601L0 601Z" fill="#353535"></path></svg>